<?xml version="1.0" encoding="UTF-8" standalone="no"?>
<!-- Created with Inkscape (http://www.inkscape.org/) -->

<svg
   xmlns:dc="http://purl.org/dc/elements/1.1/"
   xmlns:cc="http://creativecommons.org/ns#"
   xmlns:rdf="http://www.w3.org/1999/02/22-rdf-syntax-ns#"
   xmlns:svg="http://www.w3.org/2000/svg"
   xmlns="http://www.w3.org/2000/svg"
   xmlns:sodipodi="http://sodipodi.sourceforge.net/DTD/sodipodi-0.dtd"
   xmlns:inkscape="http://www.inkscape.org/namespaces/inkscape"
   width="56.307133mm"
   height="56.178162mm"
   viewBox="0 0 56.307133 56.178162"
   version="1.1"
   id="svg8"
   sodipodi:docname="data.svg"
   inkscape:version="0.92.2 (5c3e80d, 2017-08-06)">
  <defs
     id="defs2" />
  <sodipodi:namedview
     id="base"
     pagecolor="#ffffff"
     bordercolor="#666666"
     borderopacity="1.0"
     inkscape:pageopacity="0.0"
     inkscape:pageshadow="2"
     inkscape:zoom="0.35"
     inkscape:cx="980.39208"
     inkscape:cy="208.43699"
     inkscape:document-units="mm"
     inkscape:current-layer="layer1"
     showgrid="false"
     inkscape:window-width="1920"
     inkscape:window-height="986"
     inkscape:window-x="-11"
     inkscape:window-y="-11"
     inkscape:window-maximized="1"
     fit-margin-top="0"
     fit-margin-left="0"
     fit-margin-right="0"
     fit-margin-bottom="0" />
  <metadata
     id="metadata5">
    <rdf:RDF>
      <cc:Work
         rdf:about="">
        <dc:format>image/svg+xml</dc:format>
        <dc:type
           rdf:resource="http://purl.org/dc/dcmitype/StillImage" />
        <dc:title></dc:title>
      </cc:Work>
    </rdf:RDF>
  </metadata>
  <g
     inkscape:label="Layer 1"
     inkscape:groupmode="layer"
     id="layer1"
     transform="translate(103.19821,-158.74296)">
    <path
       style="fill:#000000;stroke-width:0.26458332"
       d="m -76.544756,214.17929 c -0.97826,-0.97826 -1.01571,-2.07302 -0.10785,-3.15197 l 0.66555,-0.79097 -0.0702,-7.62985 -0.0702,-7.62985 h -0.66145 c -0.65474,0 -0.66223,0.026 -0.73693,2.55809 l -0.0755,2.55807 -1.3136,0.84295 -1.3136,0.84293 v 2.15609 c 0,2.05278 0.038,2.19198 0.79375,2.90526 1.03991,0.9815 1.07679,2.2012 0.0962,3.18177 -0.91567,0.91567 -2.10475,0.92549 -3.07548,0.0254 -0.96088,-0.89097 -0.99217,-2.2596 -0.0727,-3.17911 0.595,-0.59499 0.65885,-0.88809 0.72761,-3.33986 l 0.0754,-2.68763 1.19062,-0.83651 1.19063,-0.8365 0.0769,-2.00808 c 0.0698,-1.82177 0.027,-2.0239 -0.46065,-2.17868 -0.81966,-0.26015 -1.07145,0.0498 -1.07145,1.31876 0,1.29154 -0.0269,1.31871 -2.23199,2.24976 -1.50985,0.63753 -1.58377,0.71422 -1.91323,1.98482 -0.31551,1.21676 -0.29739,1.40809 0.22829,2.41059 0.4986,0.95086 0.5291,1.19008 0.24049,1.88685 -0.18179,0.43885 -0.73864,1.01772 -1.23746,1.28635 -0.88172,0.47483 -0.93216,0.47483 -1.81387,0 -1.74934,-0.94208 -1.83957,-2.95824 -0.17637,-3.94072 0.53901,-0.31838 0.83606,-0.79181 1.06925,-1.70405 0.57592,-2.25302 0.73132,-2.46043 2.37488,-3.16959 1.65516,-0.71416 2.18957,-1.5752 1.4418,-2.32297 -0.21949,-0.21949 -0.36304,-0.93738 -0.36304,-1.81551 0,-2.25647 -0.0328,-2.28949 -2.27771,-2.28949 h -1.95659 l -0.95042,1.3229 -0.95042,1.32293 h -2.70718 c -2.54557,0 -2.74429,0.0395 -3.3286,0.66145 -0.86508,0.92084 -2.14413,0.89408 -3.032,-0.0634 -2.111724,-2.27741 1.05765,-5.17751 3.25588,-2.97927 0.74958,0.74958 0.91148,0.79375 2.90919,0.79375 h 2.11544 l 0.57666,-0.93306 c 1.02842,-1.66401 1.13806,-1.71277 3.85103,-1.71277 h 2.49464 v -0.79375 -0.79375 h -7.70086 -7.70087 l -0.7861,0.66146 c -1.086554,0.91426 -2.169594,0.86557 -3.178054,-0.1429 -0.67255,-0.67255 -0.77765,-0.94351 -0.64139,-1.65365 0.37898,-1.97509 2.5046,-2.64996 3.912414,-1.24215 l 0.79777,0.79777 7.5824,-0.0702 7.5824,-0.0702 v -0.79375 -0.79375 l -2.57351,-0.0757 -2.57352,-0.0756 -0.81263,-1.18112 -0.81263,-1.18112 h -2.22422 c -2.01973,0 -2.28504,0.0608 -2.88568,0.66146 -0.89575,0.89575 -2.32202,0.90109 -3.21108,0.012 -0.89071,-0.89071 -0.866,-2.13827 0.0615,-3.1064 0.98282,-1.02585 2.16962,-1.0065 3.16836,0.0517 0.73637,0.78019 0.79488,0.79375 3.42364,0.79375 h 2.67447 l 0.75875,1.20038 0.75875,1.20037 2.12389,-0.0759 2.12389,-0.0759 0.0781,-1.77867 c 0.0429,-0.97828 0.24187,-2.09442 0.44208,-2.48032 0.20021,-0.3859 0.30688,-0.85055 0.23704,-1.03254 -0.0698,-0.182 -0.87844,-0.65028 -1.79688,-1.04062 l -1.66991,-0.70972 -0.43088,-1.77073 c -0.24246,-0.99644 -0.62331,-1.88643 -0.87094,-2.03532 -2.09265,-1.25818 -2.09951,-3.17427 -0.0156,-4.35698 0.60725,-0.34465 0.78531,-0.33996 1.58573,0.0417 0.54851,0.26157 1.04017,0.76435 1.25529,1.2837 0.31708,0.7655 0.29462,0.96623 -0.21738,1.94263 -0.52568,1.0025 -0.5438,1.19383 -0.2283,2.41059 0.32946,1.2706 0.40339,1.34729 1.91324,1.98481 2.21176,0.9339 2.23198,0.95459 2.23198,2.28296 0,1.14491 0.0291,1.18924 0.72761,1.10887 0.71046,-0.0817 0.72943,-0.12872 0.80518,-1.99418 l 0.0776,-1.91045 -1.33435,-0.95864 -1.33435,-0.95863 v -2.60899 c 0,-2.43014 -0.0453,-2.65433 -0.66146,-3.27045 -2.08226,-2.08225 0.96792,-5.18682 3.09438,-3.14955 1.02584,0.98282 1.00649,2.16963 -0.0517,3.16836 -0.75572,0.71328 -0.79375,0.85248 -0.79375,2.90526 v 2.15609 l 1.32291,0.84892 1.32292,0.84891 v 2.48596 2.48596 h 0.79375 0.79375 v -7.6268 -7.62679 l -0.66146,-0.62141 c -1.79666,-1.68788 0.32069,-4.70584 2.50798,-3.57475 1.53768,0.79516 1.75222,2.27997 0.53051,3.67144 l -0.798,0.90885 0.0704,7.36858 0.0704,7.36859 0.85991,0.0829 0.85988,0.0829 v -2.48546 -2.48545 l 1.19063,-0.85504 1.19062,-0.85504 v -2.2205 c 0,-2.01574 -0.061,-2.28148 -0.66144,-2.88195 -0.89576,-0.89574 -0.9011,-2.32202 -0.012,-3.21107 0.91031,-0.91032 2.08828,-0.86284 3.07508,0.12396 1.01977,1.01977 1.03154,2.11311 0.0329,3.05567 -0.70774,0.66799 -0.73864,0.7998 -0.69837,2.97929 0.0232,1.25421 -0.014,2.49503 -0.0826,2.75738 -0.0686,0.26235 -0.6471,0.80699 -1.28553,1.21032 l -1.16077,0.73332 -5.3e-4,2.05052 -5.2e-4,2.05052 h 0.79375 c 0.76374,0 0.79375,-0.0448 0.79375,-1.18453 0,-1.32895 0.25914,-1.58221 2.44681,-2.39116 1.12249,-0.41507 1.28581,-0.58039 1.53442,-1.55326 0.15303,-0.59882 0.3322,-1.24816 0.39816,-1.44299 0.066,-0.19483 -0.11849,-0.65737 -0.40994,-1.02787 -0.95535,-1.21453 -0.46865,-2.88048 1.02188,-3.49788 1.3873,-0.57464 3.04415,0.62031 3.00491,2.16721 -0.0164,0.64519 -0.26321,1.07068 -0.98592,1.69941 -0.73151,0.63638 -1.06098,1.21086 -1.36573,2.38125 -0.2209,0.84839 -0.51934,1.68536 -0.66319,1.85993 -0.14387,0.17457 -0.96636,0.59068 -1.82774,0.92469 -1.3859,0.5374 -1.56616,0.6912 -1.56616,1.33625 0,0.54734 0.12906,0.72895 0.51804,0.72895 0.4631,0 0.52622,0.21739 0.59531,2.05052 l 0.0773,2.05052 2.04816,0.0772 2.04817,0.0772 0.84704,-1.20171 c 0.46588,-0.66095 0.97295,-1.21127 1.12684,-1.22294 0.15389,-0.0117 1.30375,-0.0115 2.55524,5.3e-4 2.18085,0.0207 2.30999,-0.0114 3.10645,-0.77253 1.10314,-1.05422 2.19694,-1.06123 3.23742,-0.0207 0.87615,0.87615 0.97885,1.71906 0.32571,2.67346 -0.61496,0.89862 -0.87292,1.04233 -1.87944,1.047 -0.58106,0.003 -1.09258,-0.2166 -1.53338,-0.6574 -0.60433,-0.60433 -0.86038,-0.66142 -2.96454,-0.66099 l -2.30308,5.3e-4 -0.74597,1.18079 -0.74598,1.18079 -2.56132,0.0755 -2.56132,0.0755 v 0.79374 0.79376 l 7.55347,0.0701 7.55347,0.0701 0.76427,-0.79772 c 1.48931,-1.55452 3.84026,-0.66609 3.84026,1.45123 0,2.00018 -2.08798,2.90684 -3.65592,1.58751 l -0.78608,-0.66134 h -7.70076 -7.70087 v 0.79375 0.79375 h 2.51399 2.51398 l 0.95042,1.32291 0.95043,1.32292 h 2.11798 c 2.01216,0 2.15504,-0.0397 2.85945,-0.79375 1.03777,-1.11093 2.33868,-1.10289 3.28377,0.0203 0.89764,1.06677 0.87076,1.95129 -0.0884,2.91047 -0.99206,0.99208 -2.16445,1.03459 -3.08711,0.11194 -0.61696,-0.61697 -0.83861,-0.66146 -3.2957,-0.66146 h -2.63424 l -0.95042,-1.32291 -0.95042,-1.32292 h -2.09186 -2.09185 v 1.95352 c 0,1.73099 -0.0603,1.96927 -0.52916,2.09189 -0.35755,0.0935 -0.52916,0.3609 -0.52916,0.82449 0,0.58568 0.26135,0.81199 1.78551,1.54612 l 1.78551,0.86002 0.40731,1.64322 c 0.32462,1.30971 0.61037,1.81985 1.40794,2.51354 1.21685,1.05838 1.38166,2.24344 0.4499,3.23524 -0.80216,0.85386 -1.70454,1.0402 -2.65562,0.54838 -1.3961,-0.72195 -1.74136,-2.18473 -0.7986,-3.38328 0.29145,-0.3705 0.47592,-0.83304 0.40994,-1.02787 -0.066,-0.19482 -0.24513,-0.84417 -0.39816,-1.44298 -0.24861,-0.97287 -0.41194,-1.1382 -1.53442,-1.55327 -2.18086,-0.80642 -2.44681,-1.0644 -2.44681,-2.37333 0,-0.93257 -0.10572,-1.20024 -0.52681,-1.33389 -0.88568,-0.2811 -1.06069,0.0821 -1.06069,2.20136 v 2.03859 l 1.07914,0.65778 c 0.59352,0.36177 1.17423,0.83636 1.29046,1.05464 0.11622,0.21828 0.21414,1.49679 0.21759,2.84112 0.006,2.24127 0.0634,2.5121 0.69392,3.26144 0.86967,1.03356 0.87043,1.84169 0.003,2.87298 -0.52161,0.61989 -0.90311,0.81405 -1.59953,0.81405 -1.99517,0 -2.97504,-2.43743 -1.55196,-3.86051 0.60614,-0.60614 0.66066,-0.8541 0.6518,-2.96454 l -0.01,-2.30308 -1.18096,-0.74834 -1.18097,-0.74833 v -2.4772 c 0,-2.62529 -0.13748,-2.92868 -1.20566,-2.66058 l -0.64642,0.16224 v 7.43451 7.43451 l 0.79375,0.90403 c 1.21404,1.38271 1.00085,2.87254 -0.52387,3.66101 -1.10084,0.56926 -1.53059,0.50252 -2.4069,-0.37379 z m 2.13701,-1.63616 c 0,-0.35787 -0.18885,-0.50086 -0.66146,-0.50086 -0.47548,0 -0.66146,0.14258 -0.66146,0.50711 0,0.27893 0.14883,0.55903 0.33074,0.62249 0.54334,0.18953 0.99218,-0.0949 0.99218,-0.62874 z m -5.87046,-4.01042 c 0.1053,-0.5468 -0.6585,-0.91523 -1.06162,-0.5121 -0.40312,0.40312 -0.0347,1.16692 0.5121,1.06162 0.25343,-0.0488 0.50072,-0.29609 0.54952,-0.54952 z m 11.559,-0.0623 c 0,-0.34734 -0.20457,-0.55822 -0.59531,-0.61372 -0.48834,-0.0693 -0.5953,0.0409 -0.5953,0.61372 0,0.57278 0.10696,0.68307 0.5953,0.61371 0.39074,-0.0555 0.59531,-0.2664 0.59531,-0.61371 z m -17.06562,-4.34254 c 0,-0.37503 -0.75348,-0.87295 -1.04674,-0.69171 -0.30334,0.18748 -0.37379,1.01197 -0.10909,1.27668 0.20494,0.20493 1.15583,-0.27631 1.15583,-0.58497 z m 22.71283,0.12532 c 0.11975,-0.61766 -0.28891,-1.00189 -0.84046,-0.79023 -0.5154,0.19778 -0.59159,1.06669 -0.11039,1.25918 0.51733,0.20693 0.8518,0.042 0.95085,-0.46895 z m -33.16387,-11.66142 c 0,-0.34357 -0.20613,-0.55481 -0.59531,-0.61009 -0.43842,-0.0623 -0.59531,0.0481 -0.59531,0.41892 0,0.27691 0.0835,0.58697 0.18553,0.68901 0.35098,0.35098 1.00509,0.027 1.00509,-0.49784 z m 27.91355,-5.9495 v -6.61459 h -6.6146 -6.61457 v 6.61459 6.61459 h 6.61457 6.6146 z m -10.4646,3.63197 c -0.0742,-0.19325 -0.10145,-1.95271 -0.0606,-3.9099 l 0.0742,-3.55854 h 3.83645 3.83646 v 3.83647 3.83646 l -3.77581,0.0734 c -2.94735,0.0573 -3.8054,-0.004 -3.91065,-0.27792 z m 6.23125,-3.63197 v -2.38125 h -2.38125 -2.38124 v 2.38125 2.38125 h 2.38124 2.38125 z m 19.97606,5.95313 c 0,-0.34733 -0.20457,-0.55822 -0.59532,-0.61372 -0.48834,-0.0694 -0.59531,0.0409 -0.59531,0.61372 0,0.57278 0.10697,0.68307 0.59531,0.6137 0.39075,-0.0555 0.59532,-0.26639 0.59532,-0.6137 z m -47.757304,-5.82085 c 0,-0.81195 -0.92566,-0.93277 -1.13099,-0.1476 -0.1605,0.61373 -0.005,0.80907 0.64592,0.80907 0.34102,0 0.48507,-0.19643 0.48507,-0.66147 z m 51.858344,0 c 0,-0.47835 -0.14215,-0.66144 -0.51355,-0.66144 -0.28246,0 -0.59066,0.12476 -0.68491,0.27725 -0.28342,0.4586 0.0877,1.04566 0.66099,1.04566 0.39691,0 0.53747,-0.17298 0.53747,-0.66147 z m -47.7573,-5.82082 c 0,-0.78796 -1.03282,-0.70925 -1.14566,0.0873 -0.0727,0.51298 0.0162,0.60182 0.52917,0.52917 0.41099,-0.0582 0.61649,-0.26372 0.61649,-0.61649 z m 43.65626,0 c 0,-0.78796 -1.03283,-0.70925 -1.14567,0.0873 -0.0727,0.51298 0.0162,0.60182 0.52918,0.52917 0.41099,-0.0582 0.61649,-0.26372 0.61649,-0.61649 z m -33.47942,-11.10091 c 0.40017,-0.48217 0.14021,-0.93764 -0.53516,-0.93764 -0.3216,0 -0.51355,0.18132 -0.51355,0.48508 0,0.86638 0.51929,1.09048 1.04871,0.45256 z m 22.98063,-0.36304 c 0.0681,-0.46259 -0.048,-0.5746 -0.59531,-0.5746 -0.49362,0 -0.67986,0.13892 -0.67986,0.50713 0,0.94592 1.13706,1.00609 1.27517,0.0675 z m -17.19792,-4.3449 c -0.0555,-0.39074 -0.26639,-0.59531 -0.61372,-0.59531 -0.34732,0 -0.55822,0.20457 -0.61371,0.59531 -0.0694,0.48833 0.0409,0.5953 0.61371,0.5953 0.57279,0 0.68307,-0.10697 0.61372,-0.5953 z m 11.55711,-0.0661 c 0,-0.78795 -1.03281,-0.70924 -1.14565,0.0873 -0.0727,0.51298 0.0162,0.60183 0.52917,0.52917 0.41099,-0.0582 0.61648,-0.26371 0.61648,-0.61649 z m -5.73628,-4.0376 c 0.0688,-0.48193 -0.0424,-0.5926 -0.59532,-0.5926 -0.48286,0 -0.67986,0.14055 -0.67986,0.48506 0,1.02553 1.13061,1.12089 1.27518,0.10754 z"
       id="path4541"
       inkscape:connector-curvature="0"
       inkscape:export-xdpi="96"
       inkscape:export-ydpi="96" />
  </g>
</svg>
