<?xml version="1.0" encoding="UTF-8" standalone="no"?>
<!-- Created with Inkscape (http://www.inkscape.org/) -->

<svg
   xmlns:dc="http://purl.org/dc/elements/1.1/"
   xmlns:cc="http://creativecommons.org/ns#"
   xmlns:rdf="http://www.w3.org/1999/02/22-rdf-syntax-ns#"
   xmlns:svg="http://www.w3.org/2000/svg"
   xmlns="http://www.w3.org/2000/svg"
   xmlns:sodipodi="http://sodipodi.sourceforge.net/DTD/sodipodi-0.dtd"
   xmlns:inkscape="http://www.inkscape.org/namespaces/inkscape"
   width="44.539402mm"
   height="45.067139mm"
   viewBox="0 0 44.539402 45.067139"
   version="1.1"
   id="svg8"
   sodipodi:docname="manufacturing.svg"
   inkscape:version="0.92.2 (5c3e80d, 2017-08-06)">
  <defs
     id="defs2" />
  <sodipodi:namedview
     id="base"
     pagecolor="#ffffff"
     bordercolor="#666666"
     borderopacity="1.0"
     inkscape:pageopacity="0.0"
     inkscape:pageshadow="2"
     inkscape:zoom="0.35"
     inkscape:cx="-415.83106"
     inkscape:cy="56.59481"
     inkscape:document-units="mm"
     inkscape:current-layer="layer1"
     showgrid="false"
     inkscape:window-width="1920"
     inkscape:window-height="986"
     inkscape:window-x="-11"
     inkscape:window-y="-11"
     inkscape:window-maximized="1"
     fit-margin-top="0"
     fit-margin-left="0"
     fit-margin-right="0"
     fit-margin-bottom="0" />
  <metadata
     id="metadata5">
    <rdf:RDF>
      <cc:Work
         rdf:about="">
        <dc:format>image/svg+xml</dc:format>
        <dc:type
           rdf:resource="http://purl.org/dc/dcmitype/StillImage" />
        <dc:title></dc:title>
      </cc:Work>
    </rdf:RDF>
  </metadata>
  <g
     inkscape:label="Layer 1"
     inkscape:groupmode="layer"
     id="layer1"
     transform="translate(-85.075539,-118.74024)">
    <path
       style="fill:#000000;stroke-width:0.26458338"
       d="m 105.04644,163.66111 -0.84905,-0.10591 -0.077,-1.99875 -0.077,-1.99875 -1.98438,-0.59219 c -1.09141,-0.32571 -2.185614,-0.67925 -2.431574,-0.78566 -0.342748,-0.14827 -0.721886,0.17968 -1.623264,1.40411 l -1.176066,1.59758 -1.551736,-0.92767 c -0.853454,-0.51021 -2.023001,-1.39448 -2.598992,-1.96503 l -1.047257,-1.03736 0.63314,-0.86708 c 0.348227,-0.47689 0.861647,-1.18097 1.140934,-1.56462 l 0.507793,-0.69754 -1.15201,-1.46624 c -0.633605,-0.80643 -1.347906,-1.74269 -1.587334,-2.08059 -0.431708,-0.60924 -0.445996,-0.61071 -1.719792,-0.17719 -2.535491,0.86293 -2.348192,0.89699 -2.966078,-0.53933 -0.56258,-1.30775 -1.361098,-4.07444 -1.361098,-4.71591 0,-0.1877 0.136604,-0.34128 0.303564,-0.34128 0.166961,0 0.987457,-0.24936 1.823325,-0.55414 l 1.51976,-0.55413 v -2.57805 -2.57805 l -1.848393,-0.59532 -1.848393,-0.59531 0.173599,-0.92536 c 0.250334,-1.3344 1.390186,-4.61621 1.716739,-4.94276 0.194303,-0.1943 0.815557,-0.1016 2.06318,0.30786 1.648591,0.54106 1.805403,0.55206 2.049744,0.14385 0.145521,-0.24311 0.829674,-1.20267 1.52034,-2.13235 l 1.255756,-1.69034 -1.057319,-1.43124 c -0.581525,-0.78718 -1.057318,-1.5461 -1.057318,-1.6865 0,-0.54101 4.368786,-3.73608 5.108537,-3.73608 0.08213,0 0.642058,0.70243 1.244279,1.56095 l 1.094947,1.56096 1.503207,-0.61081 c 0.82677,-0.33595 1.9442,-0.69354 2.48319,-0.79466 l 0.97999,-0.18384 0.0768,-2.02307 0.0768,-2.02307 h 3.0427 3.04271 l 0.13229,1.94676 0.1323,1.94676 2.24896,0.75959 c 1.23692,0.41776 2.37799,0.76211 2.5357,0.76521 0.15772,0.003 0.73776,-0.64921 1.289,-1.44957 0.55123,-0.80037 1.05201,-1.45521 1.11285,-1.45521 0.72015,0 4.75708,2.8843 5.02911,3.59318 0.0814,0.21217 -0.34433,1.03174 -0.95863,1.84537 l -1.10509,1.46369 0.79371,0.90399 c 0.43654,0.4972 1.11449,1.45136 1.50656,2.12036 0.39206,0.66901 0.84634,1.16733 1.0095,1.10739 1.70602,-0.62676 3.15803,-1.00449 3.44217,-0.89545 0.4072,0.15626 1.60257,3.26176 1.8688,4.855 l 0.18429,1.1029 -1.81993,0.58615 -1.81993,0.58615 v 2.61184 2.61184 l 1.80032,0.57983 c 1.28945,0.4153 1.80032,0.70731 1.80032,1.02905 0,0.87909 -1.45518,5.10263 -1.97462,5.73117 -0.0304,0.0368 -0.74825,-0.17161 -1.59527,-0.46303 -0.84702,-0.29141 -1.69028,-0.52985 -1.87391,-0.52985 -0.18364,0 -0.60943,0.44649 -0.94621,0.99219 -0.33679,0.5457 -1.01082,1.43382 -1.49785,1.9736 l -0.88551,0.98142 1.20119,1.68331 1.20118,1.68331 -1.20637,1.0084 c -0.66351,0.55462 -1.86308,1.40385 -2.66572,1.88717 l -1.45934,0.87878 -1.17284,-1.59319 c -0.64506,-0.87625 -1.316,-1.53415 -1.49097,-1.46199 -0.32873,0.13557 -3.7672,1.23146 -4.35304,1.38737 -0.22683,0.0604 -0.33073,0.7027 -0.33073,2.04474 v 1.95671 l -1.22755,0.16826 c -1.25902,0.17257 -2.75201,0.16473 -4.25171,-0.0223 z m 7.4103,-7.56679 c 2.56951,-0.93268 4.52527,-2.20365 6.29813,-4.09289 3.68333,-3.92512 5.11252,-8.76607 4.08532,-13.83773 -1.5182,-7.4959 -7.89814,-12.74571 -15.48949,-12.74571 -9.897024,0 -17.41684,9.03965 -15.491222,18.62215 1.292654,6.43267 6.317356,11.49749 12.580802,12.68125 2.09395,0.39574 6.05149,0.0862 8.01646,-0.62707 z m -7.61958,-1.93436 c -0.29104,-0.0759 -0.95967,-0.24832 -1.48585,-0.38315 l -0.95668,-0.24514 -0.13255,-1.8525 c -0.1499,-2.09512 -0.51498,-2.75397 -3.191678,-5.76003 -1.719981,-1.93161 -2.946959,-4.27685 -3.216804,-6.14857 -0.117173,-0.81275 -0.0053,-1.82585 0.35505,-3.21569 0.629703,-2.42861 1.218509,-3.63689 2.662521,-5.4637 0.915741,-1.1585 1.219531,-1.37073 1.962031,-1.37073 h 0.87852 l 0.17624,4.48301 c 0.0969,2.46566 0.24646,4.66599 0.33228,4.88962 0.50631,1.31944 8.31617,1.56709 10.02456,0.31788 0.34741,-0.25403 0.45057,-1.13831 0.58325,-4.99956 l 0.16119,-4.69095 h 0.86428 c 0.68818,0 1.06202,0.22911 1.83476,1.12448 2.01723,2.33735 3.54763,6.64795 3.19503,8.99929 -0.26866,1.79158 -1.52539,4.16462 -3.19546,6.03388 -2.61014,2.92147 -3.05733,3.72479 -3.23176,5.80532 l -0.15474,1.84576 -0.95397,0.28748 c -1.05332,0.31743 -5.675,0.56114 -6.51022,0.3433 z"
       id="path4528"
       inkscape:connector-curvature="0"
       sodipodi:nodetypes="ccccccccccccccscccssccccccccccccsssccccccccccccccscccccccsccccccsccscscccsccsccsccccccssscccccscscsscscsscscscsccc"
       inkscape:export-xdpi="96"
       inkscape:export-ydpi="96" />
  </g>
</svg>
