<?xml version="1.0" encoding="UTF-8" standalone="no"?>
<!-- Created with Inkscape (http://www.inkscape.org/) -->

<svg
   xmlns:dc="http://purl.org/dc/elements/1.1/"
   xmlns:cc="http://creativecommons.org/ns#"
   xmlns:rdf="http://www.w3.org/1999/02/22-rdf-syntax-ns#"
   xmlns:svg="http://www.w3.org/2000/svg"
   xmlns="http://www.w3.org/2000/svg"
   xmlns:sodipodi="http://sodipodi.sourceforge.net/DTD/sodipodi-0.dtd"
   xmlns:inkscape="http://www.inkscape.org/namespaces/inkscape"
   width="79.979958mm"
   height="79.34407mm"
   viewBox="0 0 79.979958 79.34407"
   version="1.1"
   id="svg8"
   inkscape:version="0.92.2 (5c3e80d, 2017-08-06)"
   sodipodi:docname="mfg.svg">
  <defs
     id="defs2" />
  <sodipodi:namedview
     id="base"
     pagecolor="#ffffff"
     bordercolor="#666666"
     borderopacity="1.0"
     inkscape:pageopacity="0.0"
     inkscape:pageshadow="2"
     inkscape:zoom="0.35"
     inkscape:cx="-385.99945"
     inkscape:cy="47.084447"
     inkscape:document-units="mm"
     inkscape:current-layer="layer1"
     showgrid="false"
     fit-margin-top="0"
     fit-margin-left="0"
     fit-margin-right="0"
     fit-margin-bottom="0"
     inkscape:window-width="1920"
     inkscape:window-height="986"
     inkscape:window-x="-11"
     inkscape:window-y="-11"
     inkscape:window-maximized="1" />
  <metadata
     id="metadata5">
    <rdf:RDF>
      <cc:Work
         rdf:about="">
        <dc:format>image/svg+xml</dc:format>
        <dc:type
           rdf:resource="http://purl.org/dc/dcmitype/StillImage" />
        <dc:title></dc:title>
      </cc:Work>
    </rdf:RDF>
  </metadata>
  <g
     inkscape:label="Layer 1"
     inkscape:groupmode="layer"
     id="layer1"
     transform="translate(-75.670687,-81.947021)">
    <path
       style="fill:#000000;stroke-width:0.18123798"
       d="m 96.839379,161.19256 c -1.26303,-0.18415 -2.53733,-0.53269 -2.53733,-0.69401 0,-0.0682 1.91659,-2.04675 4.25909,-4.3967 l 4.259091,-4.27263 v -1.06635 -1.06635 l -2.945121,-2.97184 c -1.61981,-1.63452 -3.18291,-3.09683 -3.47355,-3.24958 -0.3482,-0.18301 -0.80467,-0.2466 -1.33837,-0.18644 -0.779,0.0878 -0.97479,0.25604 -5.12641,4.40495 -4.2489,4.24614 -4.319351,4.30609 -4.500551,3.82949 -0.4083,-1.07389 -0.60329,-2.97142 -0.50538,-4.91773 0.18516,-3.68048 1.375881,-6.29066 4.099271,-8.98601 2.31816,-2.29428 4.33013,-3.33225 7.54641,-3.89312 1.63278,-0.28473 3.996541,-0.17058 5.763081,0.27831 l 0.87867,0.22327 3.96042,-3.95734 3.96041,-3.95736 -5.97181,-5.97767 c -5.575861,-5.58132 -5.971831,-6.01993 -5.971831,-6.61491 0,-0.58445 0.28146,-0.92074 3.398211,-4.06024 3.40551,-3.43036 4.02354,-3.93882 4.78754,-3.93882 0.29722,0 2.06366,1.65042 6.40011,5.97976 l 5.9896,5.97978 4.42082,-4.42359 4.42083,-4.42359 -0.32944,-1.1484 c -0.73826,-2.57355 -0.31001,-6.8084 0.93805,-9.276152 1.69888,-3.35913 4.79655,-6.1098 8.10288,-7.19522 2.48126,-0.81455 5.86337,-0.92238 8.06754,-0.2572 l 0.97728,0.29492 -4.37549,4.38884 -4.37548,4.388842 0.001,0.8977 c 7.9e-4,0.5518 0.12295,1.07836 0.31717,1.36657 0.65138,0.96661 5.71227,5.82313 6.34265,6.08652 1.34877,0.56355 1.55272,0.42521 6.21177,-4.21326 2.34511,-2.33483 4.31408,-4.245142 4.37542,-4.245142 0.18758,0 0.66611,2.367572 0.76511,3.785502 0.10505,1.50453 -0.2196,3.69675 -0.79458,5.36528 -1.3911,4.03685 -5.2746,7.59593 -9.51619,8.72124 -1.68865,0.448 -5.72815,0.45537 -7.06828,0.0129 l -0.90619,-0.2992 -4.43898,4.43662 -4.43897,4.43661 9.81977,9.83306 c 6.341,6.34958 9.86102,10.00271 9.93617,10.31194 0.07,0.28801 0.008,0.68533 -0.15464,0.99681 -0.14908,0.28486 -1.81608,2.04712 -3.70444,3.91614 -3.14164,3.10944 -3.48733,3.39821 -4.06801,3.39821 -0.59681,0 -1.22512,-0.59066 -10.5457,-9.91406 l -9.91107,-9.91407 -3.99305,3.99304 -3.99304,3.99305 0.32599,1.07291 c 0.49342,1.62391 0.45308,5.14906 -0.0803,7.01919 -1.32938,4.66091 -4.94513,8.31207 -9.54198,9.63545 -1.77731,0.51165 -4.11508,0.70384 -5.71843,0.47007 z M 84.787048,122.77721 c -1.00035,-0.62879 -8.93804,-8.77795 -9.06969,-9.31133 -0.20631,-0.8359 0.20315,-1.43391 2.61775,-3.82305 2.08427,-2.06228 2.37823,-2.29021 2.95377,-2.29021 0.43729,0 0.85521,0.17171 1.32332,0.54372 0.37629,0.29904 0.73796,0.54371 0.80371,0.54371 0.0658,0 0.43744,-0.32556 0.82598,-0.72347 l 0.70645,-0.72346 -0.49523,-0.51691 c -0.60778,-0.63438 -0.91476,-1.63878 -0.68161,-2.23013 0.0927,-0.23518 3.417541,-3.66175 7.388491,-7.614592 6.18687,-6.15866 7.46626,-7.34558 8.941671,-8.29541 4.05663,-2.61155 9.55841,-4.81429 14.58966,-5.84123 2.38181,-0.48616 3.07777,-0.55397 5.61838,-0.54742 1.67014,0.004 3.39935,0.1097 4.07785,0.24853 1.15715,0.23677 1.17693,0.25065 1.11495,0.78246 -0.0814,0.69841 -0.50055,1.70221 -0.89532,2.14411 -0.73506,0.82287 -1.58101,1.15104 -4.02562,1.56172 -3.12345,0.52471 -5.11248,1.10089 -7.15891,2.07379 -4.4292,2.1057 -6.073,5.03364 -5.84281,10.40719 0.0541,1.263442 0.14823,2.419942 0.20912,2.570012 0.15275,0.37646 -12.649061,13.15616 -13.350981,13.32794 -0.71141,0.17409 -1.30295,-0.0204 -2.0458,-0.67263 l -0.64785,-0.56882 -0.80562,0.79065 c -0.6236,0.61202 -0.74733,0.82327 -0.54761,0.93504 0.45181,0.25284 1.01114,1.34191 1.01114,1.96877 0,0.53677 -0.2847,0.89048 -2.49917,3.10496 -2.72311,2.72311 -2.9908,2.86333 -4.116021,2.15606 z"
       id="path4653"
       inkscape:connector-curvature="0" />
  </g>
</svg>
