<?xml version="1.0" encoding="UTF-8" standalone="no"?>
<!-- Created with Inkscape (http://www.inkscape.org/) -->

<svg
   xmlns:dc="http://purl.org/dc/elements/1.1/"
   xmlns:cc="http://creativecommons.org/ns#"
   xmlns:rdf="http://www.w3.org/1999/02/22-rdf-syntax-ns#"
   xmlns:svg="http://www.w3.org/2000/svg"
   xmlns="http://www.w3.org/2000/svg"
   xmlns:sodipodi="http://sodipodi.sourceforge.net/DTD/sodipodi-0.dtd"
   xmlns:inkscape="http://www.inkscape.org/namespaces/inkscape"
   width="34.836903mm"
   height="52.270149mm"
   viewBox="0 0 34.836903 52.27015"
   version="1.1"
   id="svg8"
   sodipodi:docname="suspension.svg"
   inkscape:version="0.92.2 (5c3e80d, 2017-08-06)">
  <defs
     id="defs2" />
  <sodipodi:namedview
     id="base"
     pagecolor="#ffffff"
     bordercolor="#666666"
     borderopacity="1.0"
     inkscape:pageopacity="0.0"
     inkscape:pageshadow="2"
     inkscape:zoom="0.35"
     inkscape:cx="268.80627"
     inkscape:cy="15.251204"
     inkscape:document-units="mm"
     inkscape:current-layer="layer1"
     showgrid="false"
     inkscape:window-width="1920"
     inkscape:window-height="986"
     inkscape:window-x="-11"
     inkscape:window-y="-11"
     inkscape:window-maximized="1"
     fit-margin-top="0"
     fit-margin-left="0"
     fit-margin-right="0"
     fit-margin-bottom="0" />
  <metadata
     id="metadata5">
    <rdf:RDF>
      <cc:Work
         rdf:about="">
        <dc:format>image/svg+xml</dc:format>
        <dc:type
           rdf:resource="http://purl.org/dc/dcmitype/StillImage" />
        <dc:title></dc:title>
      </cc:Work>
    </rdf:RDF>
  </metadata>
  <g
     inkscape:label="Layer 1"
     inkscape:groupmode="layer"
     id="layer1"
     transform="translate(96.068086,-100.5984)">
    <path
       style="fill:#000000;stroke-width:0.10895333"
       d="m -67.743086,152.71623 c -0.9064,-0.24376 -1.79796,-0.77345 -2.44675,-1.45363 -1.52614,-1.6 -1.89811,-3.78862 -0.97792,-5.75407 l 0.26701,-0.57032 -0.60504,-1.06859 c -0.93236,-1.64668 -0.80338,-1.58376 -1.44469,-0.7048 -0.59166,0.8109 -1.11291,1.15403 -1.95479,1.28681 -1.17548,0.18538 -2.56639,-0.72924 -2.92005,-1.92015 -0.35238,-1.18661 -0.17834,-1.71561 1.23204,-3.7448 0.60625,-0.87225 1.10227,-1.63882 1.10227,-1.7035 0,-0.11838 -0.53503,-1.08251 -0.60071,-1.08251 -0.0194,0 -0.14725,0.18122 -0.28414,0.40271 -0.39908,0.64574 -0.86067,1.11936 -1.3186,1.35298 -1.78267,0.90945 -3.91554,-0.42567 -3.93056,-2.46042 -0.006,-0.86319 0.19748,-1.29142 1.47985,-3.10864 l 1.03797,-1.47087 -0.22435,-0.38133 c -0.4295,-0.73007 -0.44567,-0.73083 -0.93315,-0.0437 -0.24476,0.34501 -0.64736,0.76319 -0.89467,0.92929 -1.65354,1.11053 -3.98808,-0.10236 -4.11778,-2.13935 -0.0241,-0.37885 0.017,-0.87361 0.092,-1.10525 0.0746,-0.23064 0.61932,-1.11765 1.21049,-1.97112 0.59117,-0.85348 1.07486,-1.60912 1.07486,-1.67921 0,-0.097 -0.44867,-0.96215 -0.6004,-1.15776 -0.0131,-0.0168 -0.55784,0.28452 -1.21064,0.66966 -0.65279,0.38514 -1.4004,0.75775 -1.66136,0.82802 -0.87621,0.23594 -1.87111,-0.0909 -2.51745,-0.82705 -0.38673,-0.44046 -0.75902,-1.17051 -0.76287,-1.49597 -10e-4,-0.11122 -0.121,-0.29553 -0.26598,-0.40957 -0.14498,-0.11403 -1.24813,-1.92042 -2.45145,-4.01418 -2.4319,-4.23148 -2.478,-4.35299 -1.83376,-4.83371 0.19475,-0.14533 0.75859,-0.49532 1.25296,-0.77776 0.82595,-0.47187 1.08794,-0.71236 0.77605,-0.71236 -0.36478,0 -1.61579,-0.77088 -2.22472,-1.3709 -1.39306,-1.37263 -1.9666,-3.35367 -1.5197,-5.24913 0.68623,-2.91056 3.55466,-4.8234 6.42764,-4.28634 2.88413,0.53915 5.00736,3.44748 4.55143,6.23438 -0.0626,0.38236 -0.10107,0.70942 -0.0856,0.72681 0.0155,0.0174 0.57651,-0.28904 1.24671,-0.68096 1.22376,-0.71562 1.64831,-0.83781 2.00263,-0.57638 0.10152,0.0749 1.17164,1.8522 2.37804,3.94956 1.80834,3.14381 2.19567,3.891 2.20599,4.25556 0.009,0.31742 0.10182,0.54801 0.32898,0.81715 0.46488,0.55079 0.71349,1.17446 0.71619,1.7967 0.002,0.52085 0.0212,0.55694 0.35649,0.67848 0.99028,0.359 1.71771,1.45374 1.71363,2.57892 -0.003,0.85444 -0.17902,1.2265 -1.41372,2.9899 -1.09548,1.56457 -1.09879,1.57819 -0.55626,2.28857 l 0.19915,0.26077 0.44649,-0.60438 c 0.69931,-0.94662 1.31184,-1.27908 2.35665,-1.27908 1.80387,0 3.13377,1.93947 2.52094,3.67643 -0.0845,0.23937 -0.62377,1.10994 -1.19849,1.93461 -0.57471,0.82466 -1.04493,1.54555 -1.04493,1.60195 0,0.2003 0.57517,1.08042 0.64891,0.99296 0.0412,-0.0489 0.2423,-0.30955 0.44679,-0.57921 0.46181,-0.60899 0.59235,-0.7219 1.13784,-0.98417 0.8332,-0.4006 2.01867,-0.24341 2.82971,0.37519 0.44694,0.3409 0.92412,1.24088 0.99958,1.88526 0.0931,0.79512 -0.22571,1.53432 -1.36479,3.16421 -0.55515,0.79435 -0.99357,1.50976 -0.97426,1.5898 0.0193,0.08 0.6158,1.14805 1.32553,2.37339 l 1.29043,2.22787 0.77969,0.12407 c 0.96153,0.15301 1.58681,0.41638 2.3427,0.98678 2.99009,2.25635 2.69935,6.71663 -0.56537,8.67328 -1.10347,0.66134 -2.64335,0.87966 -3.87268,0.54906 z m 2.78966,-1.93536 c 0.71659,-0.36485 1.25495,-0.90036 1.63643,-1.62772 0.25668,-0.48943 0.29815,-0.697 0.29854,-1.49447 2.7e-4,-0.71488 -0.0524,-1.04097 -0.23133,-1.42973 -0.33228,-0.72192 -0.94435,-1.35032 -1.65526,-1.69944 -0.52877,-0.25966 -0.74884,-0.30265 -1.54284,-0.30133 -0.79625,0.001 -1.0058,0.0433 -1.49447,0.29961 -3.38845,1.77711 -2.12747,6.78408 1.6579,6.58298 0.55143,-0.0293 0.92009,-0.12066 1.33103,-0.3299 z m -2.20806,-1.53219 c -1.09932,-0.47884 -1.35894,-1.94007 -0.49771,-2.80131 1.2241,-1.2241 3.23001,-0.12768 2.90788,1.58944 -0.19268,1.02702 -1.41895,1.64362 -2.41017,1.21187 z m -2.11509,-5.95106 c 0.17057,-0.12145 0.48117,-0.29229 0.69024,-0.37964 l 0.38011,-0.15883 -0.9852,-1.69046 c -0.54187,-0.92976 -1.01651,-1.6893 -1.05476,-1.68787 -0.0382,0.002 -0.28731,0.3221 -0.55348,0.71261 -0.46904,0.68816 -0.47871,0.7191 -0.31438,1.00523 0.85598,1.4904 1.42012,2.41979 1.46881,2.41979 0.0322,0 0.19809,-0.0994 0.36866,-0.22083 z m -5.41059,-0.78699 c 0.23698,-0.21418 5.51106,-7.70478 6.06809,-8.6183 0.28334,-0.46467 0.2636,-0.86196 -0.062,-1.24896 -0.31492,-0.37426 -0.6902,-0.49906 -1.06839,-0.35527 -0.17765,0.0675 -1.18403,1.41613 -3.0288,4.05869 -3.59057,5.14337 -3.476,4.96834 -3.47152,5.30317 0.0117,0.87885 0.96291,1.40273 1.56266,0.86067 z m -3.73599,-6.32276 c 0.0952,-0.073 1.55377,-2.11184 3.24136,-4.53075 3.35714,-4.81199 3.34553,-4.78925 2.78627,-5.45389 -0.22189,-0.2637 -0.36854,-0.33522 -0.68737,-0.33522 -0.22292,0 -0.48134,0.0613 -0.57426,0.13619 -0.0929,0.0749 -1.53457,2.09735 -3.20366,4.49433 -2.68665,3.85829 -3.03488,4.40627 -3.03627,4.77786 -0.003,0.74044 0.93826,1.32239 1.47393,0.91148 z m 4.65935,-1.45822 0.47423,-0.72172 -0.24469,-0.44726 c -0.13458,-0.246 -0.28118,-0.48831 -0.32576,-0.53848 -0.0737,-0.0829 -1.08622,1.21563 -1.08622,1.39309 0,0.12684 0.56053,1.04078 0.63684,1.03835 0.0393,-0.001 0.28476,-0.32704 0.5456,-0.72398 z m -8.28291,-5.02103 c 0.12295,-0.10487 1.57318,-2.12732 3.22272,-4.49433 2.71293,-3.8929 2.99951,-4.3459 3.00265,-4.74632 0.007,-0.86757 -1.05063,-1.38603 -1.59711,-0.78306 -0.47106,0.51976 -6.05681,8.63532 -6.12561,8.89993 -0.1154,0.44377 -0.0199,0.7415 0.33282,1.03834 0.38245,0.32181 0.84741,0.35592 1.16453,0.0854 z m 4.53859,-1.29536 c 0.54814,-0.78412 0.55174,-0.86336 0.0724,-1.59406 l -0.19692,-0.30019 -0.52046,0.75485 -0.52046,0.75485 0.31107,0.55384 c 0.17109,0.30461 0.31954,0.55389 0.32989,0.55395 0.0103,6e-5 0.24635,-0.3254 0.52447,-0.72324 z m -5.01731,-7.84293 c 2.34086,-1.35569 4.34191,-2.56233 4.44678,-2.68143 0.49905,-0.56674 -0.0292,-1.71774 -0.78831,-1.71774 -0.23708,0 -8.3671,4.66085 -8.79036,5.03942 -0.35058,0.31355 -0.39925,0.67336 -0.15566,1.15083 0.2021,0.39616 0.53597,0.65047 0.87494,0.66644 0.0861,0.004 2.07174,-1.10183 4.41261,-2.45752 z m 1.03244,1.89289 c 0.0835,-0.13483 0.22828,-0.36277 0.32175,-0.50652 0.16817,-0.25864 0.16714,-0.25989 -0.0983,-0.11924 -0.67976,0.3601 -0.75618,0.44193 -0.61855,0.66232 0.16625,0.26621 0.21017,0.26215 0.39516,-0.0366 z m -2.79238,-5.27522 c 2.64966,-1.5381 4.87424,-2.84962 4.9435,-2.91451 0.0937,-0.0878 -0.29804,-0.85722 -1.52994,-3.00523 -0.91072,-1.58799 -1.70427,-2.88726 -1.76343,-2.88726 -0.16342,0 -9.85248,5.65107 -9.85248,5.74639 0,0.10435 3.28155,5.85714 3.34109,5.85714 0.024,0 2.21159,-1.25844 4.86126,-2.79653 z m -4.74836,-7.35489 c 0.80418,-0.2992 1.58583,-1.04296 2.01741,-1.91962 0.31894,-0.64787 0.35728,-0.82531 0.35743,-1.65444 1.1e-4,-0.81631 -0.0415,-1.01657 -0.34355,-1.65422 -0.80419,-1.6974 -2.61285,-2.5895 -4.3871,-2.16386 -2.27292,0.54526 -3.57251,3.23403 -2.59508,5.36903 0.88927,1.94243 2.92826,2.77563 4.95089,2.02311 z m -2.67388,-1.13697 c -1.76524,-0.87965 -2.04896,-3.26644 -0.54165,-4.55664 1.2287,-1.05172 3.04695,-0.83054 4.00117,0.48672 1.04199,1.43843 0.43373,3.49686 -1.23996,4.19617 -0.61456,0.25678 -1.5587,0.20308 -2.21956,-0.12625 z m 1.86619,-1.67838 c 0.55257,-0.43466 0.46932,-1.37217 -0.15031,-1.69259 -0.37182,-0.19228 -0.54717,-0.19764 -0.91922,-0.0281 -0.6304,0.28723 -0.77393,1.12525 -0.27771,1.62147 0.38624,0.38624 0.93133,0.42639 1.34724,0.0992 z"
       id="path4515"
       inkscape:connector-curvature="0"
       inkscape:export-xdpi="96"
       inkscape:export-ydpi="96" />
  </g>
</svg>
